dummy_motion.mot
nRows=30
nColumns=17

name dummy_motion.mot
datacolumns 17
datarows 30
range 0.0100000000 0.3000000000
endheader
time	first_body_list	first_body_rotation	first_body_tilt	first_body_tx	first_body_ty	first_body_tz	subtalar_angle_l	ankle_angle_l	knee_angle_l	hip_flexion_l	hip_adduction_l	hip_rotation_l	lumbar_extension	lumbar_bending	lumbar_rotation	mtp_angle_l
        0.0100000000	        0.0000000000	        0.0000000000	        0.0000000000	        0.0000000000	        0.0000000000	        0.0000000000	        0.0000000000	       33.6268530194	      -52.1572584356	      -62.1991789673	      -36.9360477312	       36.7685330807	      -26.7952561039	      -17.2898688605	      -25.2363980700	        0.0000000000	
        0.0200000000	        0.0000000000	        0.0000000000	        0.0000000000	        0.0000000000	        0.0000000000	        0.0000000000	        0.0000000000	      -57.5929226028	      -62.7771461431	      111.2306077659	      -22.6392472002	      -37.0042259898	      -19.7460598113	        5.9416450771	      -32.2294606093	        0.0000000000	
        0.0300000000	        0.0000000000	        0.0000000000	        0.0000000000	        0.0000000000	        0.0000000000	        0.0000000000	        0.0000000000	       12.6839342639	       -5.4977027895	       58.5282937576	      -27.9755133406	      -38.7404235022	      -26.6030893918	       -1.6992685074	      -22.3554939749	        0.0000000000	
        0.0400000000	        0.0000000000	        0.0000000000	        0.0000000000	        0.0000000000	        0.0000000000	        0.0000000000	        0.0000000000	       36.7103556500	      -67.6572497855	        2.7628046421	      -12.0026410493	      -37.7413706949	      105.6490401382	      -35.3977699900	       27.7796822390	        0.0000000000	
        0.0500000000	        0.0000000000	        0.0000000000	        0.0000000000	        0.0000000000	        0.0000000000	        0.0000000000	        0.0000000000	       20.7075366961	      -82.2457474414	       15.1003105786	      -15.7970498240	      -27.5249518914	       28.1211772011	        9.8051975821	      -14.1126813204	        0.0000000000	
        0.0600000000	        0.0000000000	        0.0000000000	        0.0000000000	        0.0000000000	        0.0000000000	        0.0000000000	        0.0000000000	       -0.0938512111	       -3.2093138639	      -67.5458990055	      -39.0481567785	       -2.6062775648	       96.7516887723	        7.1470608999	       38.6054063754	        0.0000000000	
        0.0700000000	        0.0000000000	        0.0000000000	        0.0000000000	        0.0000000000	        0.0000000000	        0.0000000000	        0.0000000000	      -21.7297671984	      -28.6035956296	      -25.9268032594	       -1.8928605413	       29.4381871408	      -69.7550571248	       37.6427048156	       27.0197585521	        0.0000000000	
        0.0800000000	        0.0000000000	        0.0000000000	        0.0000000000	        0.0000000000	        0.0000000000	        0.0000000000	        0.0000000000	        8.8578599985	      -97.4208279458	       61.9739175620	        8.2312288653	      -29.7766176088	       -1.0067418999	      -11.4662667758	        3.0176582476	        0.0000000000	
        0.0900000000	        0.0000000000	        0.0000000000	        0.0000000000	        0.0000000000	        0.0000000000	        0.0000000000	        0.0000000000	      -58.2559997827	      -87.6033564554	      -46.8101172832	      -30.1594445716	      -30.6328644828	       87.6229801730	      -16.8957790026	      -37.1459908944	        0.0000000000	
        0.1000000000	        0.0000000000	        0.0000000000	        0.0000000000	        0.0000000000	        0.0000000000	        0.0000000000	        0.0000000000	       58.4765636694	      -14.4191447549	       13.5870368934	       -5.3482645672	      -36.5190868299	       24.0536710854	        1.2643573001	       13.7378303505	        0.0000000000	
        0.1100000000	        0.0000000000	        0.0000000000	        0.0000000000	        0.0000000000	        0.0000000000	        0.0000000000	        0.0000000000	      -21.0722422933	      -39.0133621211	      -63.0869510507	      -24.2669349508	      -35.3131524615	      -39.7170500161	      -38.9536372423	        6.4692125434	        0.0000000000	
        0.1200000000	        0.0000000000	        0.0000000000	        0.0000000000	        0.0000000000	        0.0000000000	        0.0000000000	        0.0000000000	      -19.5251419608	      -77.5628348998	       20.4516015027	       11.7905322258	      -14.2203174462	      -21.4022226744	      -15.3545774963	       17.5449104228	        0.0000000000	
        0.1300000000	        0.0000000000	        0.0000000000	        0.0000000000	        0.0000000000	        0.0000000000	        0.0000000000	        0.0000000000	        8.0480107073	      -69.7476127401	      -31.8219580811	       22.2713187473	        6.4882219889	       64.2822201248	      -24.4990560636	       23.7740524459	        0.0000000000	
        0.1400000000	        0.0000000000	        0.0000000000	        0.0000000000	        0.0000000000	        0.0000000000	        0.0000000000	        0.0000000000	       48.8803835072	       -3.3776461145	      -17.9476926368	      -34.3429057075	        9.7423319042	       16.1038394719	      -12.8694648976	       37.6917899165	        0.0000000000	
        0.1500000000	        0.0000000000	        0.0000000000	        0.0000000000	        0.0000000000	        0.0000000000	        0.0000000000	        0.0000000000	      -45.5599128200	      -32.5299145090	      -34.9588921466	       34.4072916699	       20.4082423217	      118.5891996276	       -3.1870475312	      -35.6808878905	        0.0000000000	
        0.1600000000	        0.0000000000	        0.0000000000	        0.0000000000	        0.0000000000	        0.0000000000	        0.0000000000	        0.0000000000	       16.9411455126	      -71.9100302861	       -8.1240349622	       32.5751094640	      -10.5506108214	      107.3715891234	      -10.5767714783	      -14.3143275146	        0.0000000000	
        0.1700000000	        0.0000000000	        0.0000000000	        0.0000000000	        0.0000000000	        0.0000000000	        0.0000000000	        0.0000000000	       45.3648555115	       -2.1297467565	      111.1327846630	       37.7243664739	       -5.2336351324	       55.6623562822	        8.0123767376	       19.4734828741	        0.0000000000	
        0.1800000000	        0.0000000000	        0.0000000000	        0.0000000000	        0.0000000000	        0.0000000000	        0.0000000000	        0.0000000000	      -35.8508634449	      -84.9491555472	      -39.0299080978	       21.3729203289	       36.9186773591	       59.4957130269	      -20.5522876555	       -1.2216009322	        0.0000000000	
        0.1900000000	        0.0000000000	        0.0000000000	        0.0000000000	        0.0000000000	        0.0000000000	        0.0000000000	        0.0000000000	        5.6469590625	      -27.6353383154	      -43.2722011515	       -4.1732707953	       -9.7041642654	      101.0580928028	       -2.9096972721	       12.3402090618	        0.0000000000	
        0.2000000000	        0.0000000000	        0.0000000000	        0.0000000000	        0.0000000000	        0.0000000000	        0.0000000000	        0.0000000000	      -23.8307580454	      -83.0367285061	       11.8632513955	      -27.1047509442	        9.2266854814	       -8.7079041964	      -15.7566126233	      -34.2589472967	        0.0000000000	
        0.2100000000	        0.0000000000	        0.0000000000	        0.0000000000	        0.0000000000	        0.0000000000	        0.0000000000	        0.0000000000	       -7.3674296983	       -5.0341805354	       36.8004563036	       23.7457084849	       31.5613678686	      -43.5821396101	      -33.0272018891	      -31.5094273211	        0.0000000000	
        0.2200000000	        0.0000000000	        0.0000000000	        0.0000000000	        0.0000000000	        0.0000000000	        0.0000000000	        0.0000000000	      -25.1919222885	      -54.7480522972	      -16.3981270787	       16.3479826486	      -30.5693062105	      -68.1988447117	       -2.6830192102	       16.5575892921	        0.0000000000	
        0.2300000000	        0.0000000000	        0.0000000000	        0.0000000000	        0.0000000000	        0.0000000000	        0.0000000000	        0.0000000000	       57.1433923583	      -24.6020816827	        5.9598926759	       -6.8652067170	      -36.9823485031	       74.7878327365	       -5.0757908164	       10.9453945332	        0.0000000000	
        0.2400000000	        0.0000000000	        0.0000000000	        0.0000000000	        0.0000000000	        0.0000000000	        0.0000000000	        0.0000000000	        5.1931965356	      -80.8368611216	       38.5872715456	      -36.6581298192	       37.6175960805	      -52.5545490385	       34.9085311118	        6.9217764673	        0.0000000000	
        0.2500000000	        0.0000000000	        0.0000000000	        0.0000000000	        0.0000000000	        0.0000000000	        0.0000000000	        0.0000000000	       25.7966638564	      -29.4699552327	      106.6444884387	      -21.1720629240	       32.6140038978	       65.9403527922	        2.7258858619	       37.0388177406	        0.0000000000	
        0.2600000000	        0.0000000000	        0.0000000000	        0.0000000000	        0.0000000000	        0.0000000000	        0.0000000000	        0.0000000000	       15.4658615513	      -14.4786666944	      -62.9651700954	      -26.0713998449	       36.8468513670	       47.4207731991	       30.0819963229	      -39.6506327961	        0.0000000000	
        0.2700000000	        0.0000000000	        0.0000000000	        0.0000000000	        0.0000000000	        0.0000000000	        0.0000000000	        0.0000000000	       21.7255140880	     -102.1019135104	       36.9394960595	      -27.4107877719	       -8.8279209810	      -58.9581627658	      -15.3125078024	       17.1789630640	        0.0000000000	
        0.2800000000	        0.0000000000	        0.0000000000	        0.0000000000	        0.0000000000	        0.0000000000	        0.0000000000	        0.0000000000	      -37.5423611437	      -88.3160851805	      -67.6230376137	      -25.6512364453	       23.9725889114	       88.8165062810	       19.6318822956	       31.5197920086	        0.0000000000	
        0.2900000000	        0.0000000000	        0.0000000000	        0.0000000000	        0.0000000000	        0.0000000000	        0.0000000000	        0.0000000000	       13.2643361174	     -101.2060380855	      -50.0740364571	      -15.7090473376	       36.1282711401	      -53.5444450190	       10.0564237659	       38.3215569305	        0.0000000000	
        0.3000000000	        0.0000000000	        0.0000000000	        0.0000000000	        0.0000000000	        0.0000000000	        0.0000000000	        0.0000000000	       53.3978679957	        9.4706611146	       18.3186089399	       -7.8032058280	       35.1254372010	       23.9992313410	       13.0274050221	      -26.9863212111	        0.0000000000	
